#!OML:ASF H:\Dans Jumps\Project 1\Capture day 1\Session 1\subject.ASF
:FULLY-SPECIFIED
:DEGREES
525
root 0.043764 17.424 -7.15906 9.58397 -1.64067 -0.731728
lowerback 5.02931 0.0384841 -0.932427
upperback 5.68267 -0.00526317 1.43766
thorax 3.03863 -0.0682022 2.00419
lowerneck -13.3283 0.437248 -1.5467
upperneck 33.06 1.08497 -0.0810887
head 13.3222 0.265887 0.401943
rclavicle 4.96962e-015 8.94531e-015
rhumerus -25.9249 -9.69929 -81.8052
rradius 28.0642
rwrist 27.0369
rhand -18.4666 -23.5842
rfingers 7.12502
rthumb 7.81997 -53.4196
lclavicle 4.96962e-015 8.94531e-015
lhumerus -24.7419 -8.6981 91.1586
lradius 28.1832
lwrist 17.9507
lhand -27.3031 -5.16627
lfingers 7.12502
lthumb -0.712832 24.8123
rfemur -24.4144 -2.69074 19.0321
rtibia 33.6974
rfoot -17.3148 -1.77991
rtoes 4.3223
lfemur -22.7295 5.99645 -18.0516
ltibia 29.646
lfoot -14.28 6.17141
ltoes 0.239369
526
root 0.0441819 17.4241 -7.16114 9.5733 -1.62863 -0.727857
lowerback 5.02491 0.0437196 -0.926926
upperback 5.67779 0.00194204 1.4362
thorax 3.03568 -0.0643004 1.99942
lowerneck -13.3286 0.435842 -1.54117
upperneck 33.0834 1.08453 -0.0886741
head 13.3325 0.265278 0.398054
rclavicle -1.19271e-015 5.1684e-015
rhumerus -25.9073 -9.67424 -81.8023
rradius 28.0827
rwrist 26.9976
rhand -18.4576 -23.606
rfingers 7.12502
rthumb 7.82868 -53.4411
lclavicle -1.19271e-015 5.1684e-015
lhumerus -24.7388 -8.6943 91.1559
lradius 28.1788
lwrist 17.9395
lhand -27.4058 -5.35074
lfingers 7.12502
lthumb -0.811998 24.6275
rfemur -24.4038 -2.6929 19.0258
rtibia 33.6897
rfoot -17.3134 -1.78721
rtoes 4.3304
lfemur -22.7226 6.00103 -18.0571
ltibia 29.6356
lfoot -14.277 6.15269
ltoes 0.267867
527
root 0.0445751 17.4241 -7.1632 9.56047 -1.61417 -0.722413
lowerback 5.02167 0.0479436 -0.924111
upperback 5.67524 0.00769241 1.43589
thorax 3.03457 -0.061278 1.99738
lowerneck -13.336 0.435172 -1.53667
upperneck 33.1128 1.08631 -0.098107
head 13.3469 0.265191 0.394009
rclavicle 3.77691e-015 -6.55989e-015
rhumerus -25.8878 -9.66005 -81.7934
rradius 28.0967
rwrist 26.9625
rhand -18.4607 -23.6197
rfingers 7.12502
rthumb 7.82571 -53.4548
lclavicle 3.77691e-015 -6.55989e-015
lhumerus -24.7246 -8.69546 91.1532
lradius 28.1601
lwrist 17.9259
lhand -27.5754 -5.67405
lfingers 7.12502
lthumb -0.975796 24.3035
rfemur -24.391 -2.69615 19.0179
rtibia 33.6827
rfoot -17.3133 -1.79525
rtoes 4.343
lfemur -22.714 6.00351 -18.0639
ltibia 29.6259
lfoot -14.2745 6.13383
ltoes 0.302221
528
root 0.0449103 17.424 -7.16537 9.54724 -1.59816 -0.719451
lowerback 5.01865 0.0516451 -0.919801
upperback 5.67478 0.0127405 1.43704
thorax 3.03556 -0.0586163 1.99603
lowerneck -13.3485 0.434017 -1.53682
upperneck 33.1445 1.08738 -0.103241
head 13.3634 0.264745 0.392393
rclavicle 3.97569e-015 5.1684e-015
rhumerus -25.8637 -9.65819 -81.7795
rradius 28.102
rwrist 26.9359
rhand -18.4719 -23.6248
rfingers 7.12502
rthumb 7.81486 -53.4604
lclavicle 3.97569e-015 5.1684e-015
lhumerus -24.7019 -8.69883 91.149
lradius 28.1316
lwrist 17.9102
lhand -27.7464 -6.0262
lfingers 7.12502
lthumb -1.14102 23.9505
rfemur -24.3788 -2.69998 19.0131
rtibia 33.6766
rfoot -17.3125 -1.80407
rtoes 4.35738
lfemur -22.7065 6.00539 -18.0679
ltibia 29.6177
lfoot -14.2718 6.11543
ltoes 0.325485
